:SAMPLES-PER-SECOND 30
:FULLY-SPECIFIED
:DEGREES
109
root  -57.0612 37.4841 9.41581 -178.711 -84.6632 -179.123
RightUpLeg  -37.4915 -14.3678 -5.76837
RightLeg  52.8426 -1.74778 -2.93761
RightFoot  -6.33562 -0.456132 9.42952
RightToes  5.82063e-011 0 -3.6325e-017
Spine  40.2309 -0.272163 0.070534
Spine1  10.2443 1.19901 -3.67405
HEad  -30.3386 -4.78004 0.105808
LeftShoulder1  1.23383 -0.696708 -22.9538
LeftArm  -11.003 -34.2778 -45.505
LeftForeArm  16.1182 -14.0579 -4.30553
LeftHand  -0.0257214 5.86618 1.41468
RightShoulder  0.483929 -1.72235 22.0949
RightArm  8.8823 25.4922 52.6273
RightForeArm  12.1513 3.37338 5.79531
RightHand  -0.279076 4.71234 -3.49494
LeftUpLeg  -36.3269 18.9049 -2.77471
LeftLeg  30.809 -4.60969 -2.60161
LeftFoot  3.35001 -0.73089 5.50804
LeftToes  1.68253e-010 -3.2327e-011 -2.69673e-012
110
root  -57.4542 37.5386 9.37514 -179.777 -85.3419 -176.091
RightUpLeg  -39.4826 -13.951 -5.56537
RightLeg  42.4994 -0.454128 -0.778222
RightFoot  -6.06188 -0.47957 9.48445
RightToes  5.82063e-011 0 -3.6325e-017
Spine  42.6572 -0.395209 0.982006
Spine1  8.74387 1.13714 -2.29216
HEad  -32.4999 -5.86934 0.614554
LeftShoulder1  1.60895 -1.56363 -25.6331
LeftArm  -10.6735 -41.4484 -43.1581
LeftForeArm  14.0635 -12.2143 -5.00613
LeftHand  -0.0275372 5.23841 2.69947
RightShoulder  0.865053 0.164257 16.8171
RightArm  5.14112 27.565 53.4656
RightForeArm  11.1842 2.39222 4.21836
RightHand  -0.240599 3.97015 -3.25043
LeftUpLeg  -38.1117 18.8886 -3.29874
LeftLeg  31.061 -5.2959 -3.07682
LeftFoot  2.98399 -0.740297 5.74152
LeftToes  1.68253e-010 -3.2327e-011 -2.69673e-012
111
root  -57.8407 37.4495 9.19075 179.275 -86.5441 -173.323
RightUpLeg  -40.3638 -12.8239 -6.01722
RightLeg  33.0854 2.28844 1.36497
RightFoot  -6.37794 -0.490493 10.3347
RightToes  5.82063e-011 0 -3.6325e-017
Spine  44.7377 -1.00454 1.58258
Spine1  8.6917 0.874338 -2.33898
HEad  -35.6538 -6.05681 2.15587
LeftShoulder1  1.69474 -2.27204 -23.0849
LeftArm  -12.0319 -46.3814 -44.7958
LeftForeArm  14.6054 -11.9728 -4.20497
LeftHand  -0.0148405 5.90366 3.16451
RightShoulder  0.912781 0.58978 15.5955
RightArm  4.47231 33.3926 52.3233
RightForeArm  8.29561 1.033 4.07339
RightHand  -0.261308 4.48513 -3.35339
LeftUpLeg  -40.3996 18.9958 -3.90718
LeftLeg  32.3895 -6.23111 -3.88601
LeftFoot  2.23064 -0.718414 5.91981
LeftToes  1.68253e-010 -3.2327e-011 -2.69673e-012
112
root  -58.2158 37.2654 8.98567 -159.488 -88.079 167.06
RightUpLeg  -40.727 -12.2978 -7.1785
RightLeg  26.4582 4.72965 2.36403
RightFoot  -5.89225 -0.612922 11.6161
RightToes  5.82063e-011 0 -3.6325e-017
Spine  46.6754 -1.95884 2.20672
Spine1  9.0213 0.441575 -3.02662
HEad  -38.8261 -6.29058 3.7856
LeftShoulder1  1.70614 -3.20392 -18.9159
LeftArm  -13.5939 -50.8361 -47.1893
LeftForeArm  14.819 -11.7637 -2.87119
LeftHand  -0.019215 5.69927 3.12748
RightShoulder  0.932449 0.846117 14.6836
RightArm  2.91314 39.0611 50.2747
RightForeArm  6.38356 0.887052 3.67635
RightHand  -0.234508 4.26682 -3.09602
LeftUpLeg  -42.748 18.492 -4.9609
LeftLeg  34.1731 -7.01605 -4.73049
LeftFoot  1.43115 -0.700766 6.17581
LeftToes  1.68253e-010 -3.2327e-011 -2.69673e-012
113
root  -58.4757 37.101 8.67139 -139.05 -89.9461 147.88
RightUpLeg  -41.3864 -12.34 -7.70449
RightLeg  23.9422 5.89786 2.65775
RightFoot  -0.344377 -1.05426 11.5544
RightToes  5.82063e-011 0 -3.6325e-017
Spine  49.168 -2.46686 2.94914
Spine1  9.12069 -0.129363 -2.20108
HEad  -41.2279 -6.91149 5.05494
LeftShoulder1  1.74042 -4.42124 -15.1434
LeftArm  -13.5586 -55.382 -48.3217
LeftForeArm  13.1458 -10.832 -2.34134
LeftHand  -0.0256951 5.42141 3.00665
RightShoulder  0.948003 1.10813 13.6982
RightArm  0.755358 44.3908 46.692
RightForeArm  2.49247 0.836351 3.45775
RightHand  -0.312593 5.21578 -3.71836
LeftUpLeg  -44.511 17.5861 -5.72147
LeftLeg  35.2931 -7.58339 -5.37138
LeftFoot  1.22527 -0.703131 6.31307
LeftToes  1.68253e-010 -3.2327e-011 -2.69673e-012
114
root  -58.734 36.8438 8.37708 -37.1423 -86.9345 47.475
RightUpLeg  -44.2606 -14.9761 -7.58577
RightLeg  26.8007 7.39323 3.81523
RightFoot  6.06002 -1.06659 7.05891
RightToes  5.82063e-011 0 -3.6325e-017
Spine  52.7498 -3.42339 4.20509
Spine1  6.76253 -1.19126 -1.17655
HEad  -42.2315 -7.83059 6.96155
LeftShoulder1  1.86361 -5.97486 -12.5726
LeftArm  -13.4765 -59.0446 -47.5834
LeftForeArm  11.2367 -10.4078 -2.42673
LeftHand  -0.0388379 4.80326 3.05553
RightShoulder  1.01339 0.99667 15.8318
RightArm  -0.764902 50.8214 39.5125
RightForeArm  -1.07607 -0.101997 4.28009
RightHand  -0.388993 5.92062 -4.32879
LeftUpLeg  -46.6464 15.7599 -6.86088
LeftLeg  36.7299 -7.95631 -5.96275
LeftFoot  0.660913 -0.66238 6.25081
LeftToes  1.68253e-010 -3.2327e-011 -2.69673e-012
115
root  -58.9871 36.4559 8.12424 -23.726 -84.7234 35.8583
RightUpLeg  -48.333 -18.1215 -7.50185
RightLeg  32.1117 7.7523 4.99279
RightFoot  2.98265 -0.850222 6.92183
RightToes  5.82063e-011 0 -3.6325e-017
Spine  56.0143 -4.93262 5.95801
Spine1  3.50266 -1.96746 -1.15292
HEad  -42.6261 -8.76031 8.05
LeftShoulder1  2.19122 -7.95331 -12.0195
LeftArm  -15.5285 -62.8939 -43.9539
LeftForeArm  11.1362 -10.1653 -2.39327
LeftHand  -0.0308179 5.11363 2.22974
RightShoulder  1.18862 1.6014 16.6804
RightArm  -5.69485 55.7032 30.3954
RightForeArm  -2.71232 -0.85813 4.34247
RightHand  -0.353684 6.63108 -3.75202
LeftUpLeg  -49.4194 13.3053 -7.65827
LeftLeg  38.9695 -7.48919 -6.08542
LeftFoot  -0.473898 -0.542065 5.72502
LeftToes  1.68253e-010 -3.2327e-011 -2.69673e-012
